# xmcd
#
# Track frame offsets: 
#        150
#        10188
#        22988
#        59006
#        94417
#        145519
#        226414
#        253532
#        280573
#        296184
#
# Disc length: 4252 seconds
#
# Revision: 0
# Processed by: cddbd v1.5.2PL0 Copyright (c) Steve Scherf et al.
# Submitted via: ExactAudioCopy v0.95b3
#
DISCID=88109a0a
DTITLE=The Beatles  - Complete Home Recordings Home Tapes 1 - 1958-196
DTITLE=2 - Disc 1
DYEAR=1900
DGENRE=
TTITLE0=That'll Be The Day
TTITLE1=In Spite Of All The Danger
TTITLE2=Instrumental
TTITLE3=Instrumental
TTITLE4=Instrumental
TTITLE5=That's The End
TTITLE6=I Don't Need No Cigarette, Boy
TTITLE7=Johnny, Johnny
TTITLE8=Well, Darling
TTITLE9=Turn The Bitches Off
EXTD=
EXTT0=
EXTT1=
EXTT2=
EXTT3=
EXTT4=
EXTT5=
EXTT6=
EXTT7=
EXTT8=
EXTT9=
PLAYORDER=
